<svg xmlns="http://www.w3.org/2000/svg" xmlns:xlink="http://www.w3.org/1999/xlink" width="500" zoomAndPan="magnify" viewBox="0 0 375 374.999991" height="500" preserveAspectRatio="xMidYMid meet" version="1.0"><defs><g/><clipPath id="5d89c5625f"><path d="M 60 99 L 315 99 L 315 205.09375 L 60 205.09375 Z M 60 99 " clip-rule="nonzero"/></clipPath><clipPath id="5f9a849ac4"><path d="M 263.652344 179.480469 L 315 179.480469 L 315 231 L 263.652344 231 Z M 263.652344 179.480469 " clip-rule="nonzero"/></clipPath><clipPath id="fffe768d1a"><path d="M 60 177.1875 L 108.363281 177.1875 L 108.363281 231 L 60 231 Z M 60 177.1875 " clip-rule="nonzero"/></clipPath></defs><g fill="#fffafa" fill-opacity="1"><g transform="translate(123.626158, 232.321566)"><g><path d="M 8.417969 0 C 10.761719 0 13.714844 -0.417969 15.835938 -1.832031 C 19.464844 -4.238281 19.371094 -9.089844 16.191406 -11.660156 C 13.75 -13.652344 9.667969 -13.78125 6.679688 -14.519531 C 4.207031 -15.160156 1.574219 -16.316406 1.832031 -19.015625 C 2.054688 -21.425781 4.402344 -22.839844 6.585938 -23.320312 C 9.539062 -23.996094 13.171875 -23.351562 14.808594 -21.199219 C 15.773438 -19.949219 16.125 -18.277344 15.484375 -16.480469 C 17.28125 -16.445312 18.246094 -17.539062 18.246094 -18.984375 C 18.246094 -20.847656 16.285156 -22.324219 14.746094 -23.0625 C 13.136719 -23.769531 11.371094 -24.09375 9.605469 -24.09375 C 6.488281 -24.09375 2.152344 -23.386719 0.578125 -20.300781 C -0.351562 -18.503906 -0.128906 -16.222656 1.1875 -14.582031 C 3.757812 -11.5 9.121094 -11.726562 12.65625 -10.472656 C 16.253906 -9.21875 18.148438 -5.492188 15.289062 -2.699219 C 12.625 -0.0976562 6.296875 0.480469 3.535156 -2.472656 C 2.34375 -3.757812 1.832031 -5.589844 2.539062 -7.613281 C 0.738281 -7.613281 -0.226562 -6.519531 -0.226562 -5.109375 C -0.226562 -3.246094 1.734375 -1.734375 3.277344 -1.027344 C 4.851562 -0.289062 6.648438 0 8.417969 0 Z M 8.417969 0 "/></g></g></g><g fill="#fffafa" fill-opacity="1"><g transform="translate(144.954456, 232.321566)"><g><path d="M 18.726562 -24.09375 L 0 -24.09375 L 0 -21.394531 C 2.410156 -22.292969 4.238281 -23.480469 8.03125 -23.578125 L 8.03125 0 L 10.695312 0 L 10.695312 -23.578125 C 14.488281 -23.480469 16.316406 -22.292969 18.726562 -21.394531 Z M 18.726562 -24.09375 "/></g></g></g><g fill="#fffafa" fill-opacity="1"><g transform="translate(166.539731, 232.321566)"><g><path d="M 10.695312 -9.988281 L 18.726562 -24.09375 L 16.0625 -24.09375 C 15 -19.949219 13.171875 -15.324219 10.632812 -10.855469 L 3.082031 -24.09375 L 0 -24.09375 L 8.03125 -9.988281 L 8.03125 0 L 10.695312 0 Z M 10.695312 -9.988281 "/></g></g></g><g fill="#fffafa" fill-opacity="1"><g transform="translate(187.193495, 232.321566)"><g><path d="M 0 0 L 17.183594 0 L 17.183594 -2.667969 C 12.882812 -1.734375 9.636719 -0.515625 2.667969 -0.480469 L 2.667969 -24.09375 L 0 -24.09375 Z M 0 0 "/></g></g></g><g fill="#fffafa" fill-opacity="1"><g transform="translate(206.626648, 232.321566)"><g><path d="M 12.046875 -24.09375 C 5.398438 -24.09375 0 -18.695312 0 -12.046875 C 0 -5.363281 5.429688 0 12.046875 0 C 15.417969 0 18.503906 -0.929688 20.6875 -2.667969 L 20.6875 -5.363281 C 17.699219 -1.285156 12.238281 1.125 7.675781 -1.832031 C 4.722656 -3.757812 2.699219 -7.613281 2.667969 -12.046875 C 2.667969 -13.234375 3.339844 -13.84375 4.527344 -13.875 C 6.808594 -13.875 9.347656 -11.339844 12.046875 -10.890625 C 14.648438 -10.503906 16.769531 -11.886719 16.027344 -14.777344 C 15.738281 -13.425781 14.359375 -13.234375 13.203125 -13.363281 C 10.953125 -13.652344 8.832031 -15.324219 6.425781 -15.324219 C 5.109375 -15.355469 3.695312 -14.96875 2.761719 -13.75 C 3.4375 -19.304688 7.324219 -23.578125 12.046875 -23.578125 C 16.0625 -23.578125 19.273438 -20.367188 17.890625 -16.480469 C 19.691406 -16.445312 20.6875 -17.539062 20.6875 -18.984375 C 20.6875 -20.847656 18.695312 -22.324219 17.152344 -23.0625 C 15.578125 -23.769531 13.78125 -24.09375 12.046875 -24.09375 Z M 12.046875 -24.09375 "/></g></g></g><g fill="#fffafa" fill-opacity="1"><g transform="translate(229.817973, 232.321566)"><g><path d="M 3.179688 -24.09375 L 0 -24.09375 L 8.417969 -11.113281 L 0.03125 0 L 2.730469 0 C 3.917969 -3.148438 6.199219 -7.226562 8.707031 -10.695312 L 15.675781 0 L 18.855469 0 L 10.441406 -12.945312 L 18.824219 -24.09375 L 16.125 -24.09375 C 14.9375 -20.945312 12.65625 -16.832031 10.152344 -13.394531 Z M 3.179688 -24.09375 "/></g></g></g><g clip-path="url(#5d89c5625f)"><path fill="#fffafa" d="M 310.558594 214.734375 C 306.316406 208.398438 297.253906 204.085938 292.128906 199.613281 C 286.148438 198.261719 280.980469 195.265625 275.796875 192.890625 C 270.320312 190.382812 264.914062 188.335938 259.460938 186.171875 C 242.898438 179.589844 227.113281 172.140625 215.90625 160.546875 C 212.027344 156.535156 208.652344 151.601562 206.273438 147.105469 C 204.832031 144.378906 203.71875 139.507812 201.664062 138.285156 C 198.171875 136.207031 191.734375 138.074219 188.261719 136.605469 C 191.511719 124.988281 178.808594 120.8125 179.46875 111.402344 C 180.109375 102.3125 190.628906 102.515625 194.964844 107.625 C 196.375 109.285156 197.222656 113.773438 201.246094 112.242188 C 202.636719 109.863281 199.757812 107.238281 198.316406 105.523438 C 196.515625 103.382812 194.332031 101.230469 191.613281 100.484375 C 184.640625 98.5625 176.441406 102.40625 175.699219 110.5625 C 174.605469 122.574219 186.445312 123.207031 184.914062 136.605469 C 179.644531 137.980469 173.21875 136.308594 170.253906 138.285156 C 168.433594 139.5 165.738281 147.085938 163.972656 150.046875 C 161.621094 153.992188 158.464844 158.332031 156.015625 160.96875 C 143.042969 174.914062 122.957031 180.429688 104.082031 188.691406 C 97.320312 191.652344 90.457031 195.179688 83.558594 198.773438 C 74.257812 203.617188 63.976562 208.332031 60.945312 217.675781 C 60.128906 220.183594 58.851562 226.410156 62.199219 229.4375 C 67.023438 230.75 71.550781 223.902344 76.859375 222.714844 C 79.484375 222.125 84.289062 222.714844 88.585938 222.714844 L 103.242188 222.714844 C 149.476562 222.714844 213.574219 223.132812 269.511719 223.132812 C 279.085938 223.132812 289.953125 221.996094 297.15625 223.554688 C 302.410156 224.691406 305.917969 231.335938 312.234375 230.695312 C 316.0625 225.457031 313.21875 218.707031 310.554688 214.734375 Z M 197.894531 108.882812 C 195.527344 105.9375 193.542969 102.605469 188.679688 102.164062 C 193.242188 101.234375 196.371094 105.371094 197.894531 108.882812 Z M 184.910156 101.742188 C 185.785156 101.507812 188.113281 101.546875 188.261719 101.742188 C 188.675781 102.292969 186.128906 101.992188 185.75 102.164062 C 184.230469 102.847656 179.96875 104.761719 178.628906 106.785156 C 180.039062 103.957031 183.246094 102.191406 184.910156 101.742188 Z M 177.792969 107.625 C 179.480469 107.789062 177.480469 110.738281 177.375 111.824219 C 179.683594 120.832031 187.886719 125.746094 187.007812 136.605469 C 184.945312 134.761719 186.175781 133.390625 185.75 131.144531 C 184.148438 122.714844 174.425781 118.65625 177.792969 107.625 Z M 201.246094 139.546875 C 206.320312 149.445312 210.585938 157.976562 218.417969 165.167969 C 230.785156 176.523438 252.125 183.660156 269.515625 191.210938 C 277.53125 194.691406 283.246094 197.792969 291.292969 200.871094 C 298.417969 206.328125 307.363281 209.957031 310.140625 219.773438 C 291.941406 192.9375 242.992188 189.828125 218.417969 168.527344 C 210.390625 161.570312 205.570312 153.175781 200.410156 142.488281 C 193.4375 140.082031 182.320312 138.464844 174.863281 141.226562 C 170.269531 142.925781 170.265625 147.394531 167.324219 150.46875 C 165.628906 149.835938 168.554688 147.082031 169 145.847656 C 167.699219 134.359375 191.304688 137.589844 201.246094 139.546875 Z M 71.832031 206.332031 C 100.652344 186.433594 148.34375 181.859375 165.648438 149.628906 C 166.988281 151.394531 164.515625 153.265625 163.554688 155.085938 C 165.449219 154.75 165.691406 152.753906 166.484375 151.308594 C 158.757812 169.933594 140.117188 177.300781 119.996094 185.75 C 110.753906 189.632812 101.28125 193.796875 91.515625 198.351562 C 80.292969 203.585938 67.59375 208.894531 63.039062 220.191406 C 62.820312 214.117188 67.6875 209.195312 71.832031 206.332031 Z M 69.320312 224.8125 C 69.082031 225.5625 68.15625 224.875 68.902344 224.8125 C 92.699219 211.578125 115.910156 197.753906 140.101562 184.910156 C 116.898438 198.605469 93.230469 211.832031 69.320312 224.8125 Z M 185.75 160.96875 C 189.664062 161.925781 191.167969 162.445312 196.519531 165.988281 C 200.621094 168.695312 203.929688 170.707031 207.527344 172.730469 C 233.585938 187.363281 261.355469 202.214844 286.683594 218.09375 C 264.578125 217.347656 236.71875 218.035156 213.449219 218.148438 L 199.925781 218.039062 C 168.023438 217.199219 129.359375 217.503906 86.488281 217.253906 C 119 197.914062 153.070312 180.140625 185.746094 160.96875 Z M 140.519531 184.910156 C 143.984375 182.507812 147.660156 180.3125 151.828125 178.609375 C 150.410156 179.742188 144.101562 183.15625 140.519531 184.910156 Z M 152.664062 178.1875 C 155.902344 175.695312 159.679688 173.742188 163.554688 171.886719 C 160.304688 174.371094 156.464844 176.261719 152.664062 178.1875 Z M 82.722656 221.03125 C 84.679688 221.257812 90.96875 219.414062 93.191406 221.453125 C 90.515625 220.964844 84.269531 222.109375 82.722656 221.03125 Z M 93.609375 220.613281 C 99.171875 220.894531 101.644531 220.800781 106.175781 221.03125 C 103.078125 221.476562 96.019531 222.261719 93.609375 220.613281 Z M 107.011719 221.03125 L 109.527344 221.03125 C 140.917969 220.757812 174.472656 221.605469 206.691406 220.613281 C 174.429688 220.402344 129.667969 220.773438 82.722656 219.773438 C 85.824219 217.59375 94.675781 217.914062 101.570312 218.09375 C 121.550781 218.617188 150.183594 218.75 177.777344 218.464844 L 178.03125 218.582031 L 228.542969 219 L 228.46875 218.871094 C 242.765625 219.09375 256.785156 219.0625 269.09375 218.933594 C 276.253906 218.859375 283.910156 218 290.453125 220.191406 C 259.179688 221.066406 234.699219 220.070312 207.109375 220.613281 C 237.484375 221.714844 269.667969 220.519531 292.546875 221.453125 C 223.585938 222.101562 166.640625 222.222656 107.011719 221.03125 Z M 310.976562 228.59375 C 276.742188 209.300781 242.871094 189.648438 208.785156 170.207031 L 205.855469 170.207031 C 200.046875 165.953125 193.085938 162.851562 186.589844 159.289062 C 179.566406 162.746094 173.125 166.785156 166.484375 170.628906 C 156.230469 173.066406 146.445312 180.238281 137.585938 185.332031 C 112.617188 199.683594 87.101562 213.125 62.199219 226.914062 C 66.140625 208.527344 86.53125 200.640625 102.824219 193.730469 C 116.09375 188.105469 129.621094 183.207031 140.9375 177.351562 C 141.882812 178.328125 138.445312 178.46875 138.425781 179.871094 C 148.929688 174.027344 160.148438 165.035156 167.324219 152.566406 C 169.234375 149.246094 172.027344 142.363281 175.28125 142.066406 C 180.042969 141.632812 182.246094 147.316406 187.007812 147.945312 C 186.515625 146.199219 184.328125 146.15625 183.238281 145.007812 C 185.691406 144.796875 188.429688 147.914062 191.195312 148.789062 C 188.976562 145.832031 185.042969 144.59375 181.5625 142.90625 C 181.273438 144.035156 182.429688 143.71875 182.820312 144.167969 C 181.417969 144.855469 179.683594 142.28125 177.792969 142.066406 C 184.769531 139.964844 194.355469 140.4375 199.992188 143.328125 C 203.4375 150.550781 206.664062 157.070312 211.296875 162.648438 C 230.421875 185.664062 269.59375 188.386719 293.386719 206.753906 L 295.480469 206.753906 C 300.417969 211.457031 306.585938 214.9375 309.300781 221.875 C 307.496094 221.582031 306.730469 220.253906 305.113281 219.773438 C 307.011719 222.667969 312.472656 223.625 310.976562 228.59375 Z M 310.976562 228.59375 " fill-opacity="1" fill-rule="nonzero"/></g><g clip-path="url(#5f9a849ac4)"><path fill="#fffafa" d="M 310.558594 214.734375 C 306.316406 208.398438 297.253906 204.085938 292.128906 199.613281 C 286.148438 198.261719 280.980469 195.265625 275.796875 192.890625 C 270.320312 190.382812 264.914062 188.335938 259.460938 186.171875 C 242.898438 179.589844 227.113281 172.140625 215.90625 160.546875 C 212.027344 156.535156 208.652344 151.601562 206.273438 147.105469 C 204.832031 144.378906 203.71875 139.507812 201.664062 138.285156 C 198.171875 136.207031 191.734375 138.074219 188.261719 136.605469 C 191.511719 124.988281 178.808594 120.8125 179.46875 111.402344 C 180.109375 102.3125 190.628906 102.515625 194.964844 107.625 C 196.375 109.285156 197.222656 113.773438 201.246094 112.242188 C 202.636719 109.863281 199.757812 107.238281 198.316406 105.523438 C 196.515625 103.382812 194.332031 101.230469 191.613281 100.484375 C 184.640625 98.566406 176.441406 102.40625 175.699219 110.5625 C 174.605469 122.574219 186.445312 123.207031 184.914062 136.605469 C 179.644531 137.980469 173.21875 136.308594 170.253906 138.285156 C 168.433594 139.5 165.738281 147.085938 163.972656 150.046875 C 161.621094 153.992188 158.464844 158.332031 156.015625 160.96875 C 143.042969 174.914062 122.957031 180.429688 104.082031 188.691406 C 97.320312 191.652344 90.457031 195.179688 83.558594 198.773438 C 74.257812 203.617188 63.976562 208.332031 60.945312 217.675781 C 60.128906 220.183594 58.851562 226.410156 62.199219 229.4375 C 67.023438 230.75 71.550781 223.902344 76.859375 222.714844 C 79.480469 222.128906 84.289062 222.714844 88.585938 222.714844 L 103.242188 222.714844 C 149.476562 222.714844 213.574219 223.132812 269.511719 223.132812 C 279.085938 223.132812 289.953125 221.996094 297.15625 223.554688 C 302.410156 224.691406 305.917969 231.335938 312.234375 230.695312 C 316.0625 225.457031 313.21875 218.707031 310.554688 214.734375 Z M 197.894531 108.882812 C 195.527344 105.9375 193.542969 102.605469 188.679688 102.164062 C 193.242188 101.234375 196.371094 105.371094 197.894531 108.882812 Z M 184.910156 101.742188 C 185.785156 101.507812 188.113281 101.546875 188.261719 101.742188 C 188.675781 102.292969 186.128906 101.992188 185.75 102.164062 C 184.230469 102.847656 179.96875 104.761719 178.628906 106.785156 C 180.039062 103.957031 183.246094 102.191406 184.910156 101.742188 Z M 177.792969 107.625 C 179.480469 107.789062 177.480469 110.738281 177.375 111.824219 C 179.683594 120.832031 187.886719 125.746094 187.007812 136.605469 C 184.945312 134.761719 186.175781 133.390625 185.75 131.144531 C 184.148438 122.714844 174.425781 118.65625 177.792969 107.625 Z M 201.246094 139.546875 C 206.320312 149.445312 210.585938 157.976562 218.417969 165.167969 C 230.785156 176.523438 252.125 183.660156 269.515625 191.210938 C 277.53125 194.691406 283.246094 197.792969 291.292969 200.871094 C 298.417969 206.328125 307.359375 209.957031 310.140625 219.773438 C 291.941406 192.9375 242.992188 189.828125 218.417969 168.527344 C 210.390625 161.570312 205.570312 153.175781 200.410156 142.488281 C 193.4375 140.082031 182.320312 138.464844 174.863281 141.226562 C 170.269531 142.925781 170.265625 147.394531 167.324219 150.46875 C 165.628906 149.835938 168.554688 147.082031 169 145.847656 C 167.699219 134.359375 191.304688 137.589844 201.246094 139.546875 Z M 71.832031 206.332031 C 100.652344 186.433594 148.34375 181.859375 165.648438 149.628906 C 166.988281 151.394531 164.515625 153.265625 163.554688 155.085938 C 165.449219 154.75 165.691406 152.753906 166.484375 151.308594 C 158.757812 169.933594 140.117188 177.300781 119.996094 185.75 C 110.753906 189.632812 101.28125 193.796875 91.515625 198.351562 C 80.292969 203.585938 67.59375 208.894531 63.039062 220.191406 C 62.820312 214.117188 67.6875 209.195312 71.832031 206.332031 Z M 69.320312 224.8125 C 69.082031 225.5625 68.15625 224.875 68.902344 224.8125 C 92.699219 211.578125 115.910156 197.753906 140.101562 184.910156 C 116.898438 198.605469 93.230469 211.832031 69.320312 224.8125 Z M 185.75 160.96875 C 189.664062 161.925781 191.167969 162.445312 196.519531 165.988281 C 200.621094 168.695312 203.929688 170.707031 207.527344 172.730469 C 233.585938 187.363281 261.355469 202.214844 286.683594 218.09375 C 264.578125 217.347656 236.71875 218.035156 213.449219 218.148438 L 199.925781 218.039062 C 168.023438 217.199219 129.359375 217.503906 86.488281 217.253906 C 119 197.914062 153.070312 180.140625 185.746094 160.96875 Z M 140.519531 184.910156 C 143.984375 182.507812 147.660156 180.3125 151.828125 178.609375 C 150.410156 179.742188 144.101562 183.15625 140.519531 184.910156 Z M 152.664062 178.1875 C 155.902344 175.695312 159.679688 173.742188 163.554688 171.886719 C 160.304688 174.371094 156.464844 176.261719 152.664062 178.1875 Z M 82.722656 221.03125 C 84.679688 221.257812 90.96875 219.414062 93.191406 221.453125 C 90.515625 220.964844 84.269531 222.109375 82.722656 221.03125 Z M 93.609375 220.613281 C 99.171875 220.894531 101.644531 220.800781 106.175781 221.03125 C 103.078125 221.476562 96.019531 222.261719 93.609375 220.613281 Z M 107.011719 221.03125 L 109.527344 221.03125 C 140.917969 220.757812 174.472656 221.605469 206.691406 220.613281 C 174.429688 220.402344 129.667969 220.773438 82.722656 219.773438 C 85.824219 217.59375 94.675781 217.914062 101.570312 218.09375 C 121.550781 218.617188 150.183594 218.75 177.777344 218.464844 L 178.03125 218.582031 L 228.542969 219 L 228.46875 218.871094 C 242.765625 219.09375 256.785156 219.0625 269.09375 218.933594 C 276.253906 218.859375 283.910156 218 290.453125 220.191406 C 259.179688 221.066406 234.699219 220.070312 207.109375 220.613281 C 237.484375 221.714844 269.667969 220.519531 292.546875 221.453125 C 223.585938 222.101562 166.640625 222.222656 107.011719 221.03125 Z M 310.976562 228.59375 C 276.742188 209.300781 242.871094 189.648438 208.785156 170.207031 L 205.855469 170.207031 C 200.046875 165.953125 193.085938 162.851562 186.589844 159.289062 C 179.566406 162.746094 173.125 166.785156 166.484375 170.628906 C 156.230469 173.066406 146.445312 180.238281 137.585938 185.332031 C 112.617188 199.683594 87.097656 213.125 62.199219 226.914062 C 66.140625 208.527344 86.53125 200.640625 102.824219 193.730469 C 116.09375 188.105469 129.621094 183.207031 140.9375 177.351562 C 141.882812 178.328125 138.445312 178.46875 138.425781 179.871094 C 148.929688 174.027344 160.148438 165.035156 167.324219 152.566406 C 169.234375 149.246094 172.027344 142.363281 175.28125 142.066406 C 180.042969 141.632812 182.246094 147.316406 187.007812 147.945312 C 186.515625 146.199219 184.328125 146.15625 183.238281 145.007812 C 185.691406 144.796875 188.429688 147.914062 191.195312 148.789062 C 188.976562 145.832031 185.042969 144.59375 181.5625 142.90625 C 181.273438 144.035156 182.429688 143.71875 182.820312 144.167969 C 181.417969 144.855469 179.683594 142.28125 177.792969 142.066406 C 184.769531 139.964844 194.355469 140.4375 199.992188 143.328125 C 203.4375 150.550781 206.664062 157.070312 211.296875 162.648438 C 230.421875 185.664062 269.59375 188.386719 293.386719 206.753906 L 295.480469 206.753906 C 300.417969 211.457031 306.585938 214.9375 309.300781 221.875 C 307.496094 221.582031 306.730469 220.253906 305.113281 219.773438 C 307.011719 222.667969 312.472656 223.625 310.976562 228.59375 Z M 310.976562 228.59375 " fill-opacity="1" fill-rule="nonzero"/></g><g clip-path="url(#fffe768d1a)"><path fill="#fffafa" d="M 310.558594 214.734375 C 306.316406 208.398438 297.253906 204.085938 292.128906 199.613281 C 286.148438 198.261719 280.980469 195.265625 275.796875 192.890625 C 270.320312 190.382812 264.914062 188.335938 259.460938 186.171875 C 242.898438 179.589844 227.113281 172.140625 215.90625 160.546875 C 212.027344 156.535156 208.652344 151.601562 206.273438 147.105469 C 204.832031 144.378906 203.71875 139.507812 201.664062 138.285156 C 198.171875 136.207031 191.734375 138.074219 188.261719 136.605469 C 191.511719 124.988281 178.808594 120.8125 179.46875 111.402344 C 180.109375 102.3125 190.628906 102.515625 194.964844 107.625 C 196.375 109.285156 197.222656 113.773438 201.246094 112.242188 C 202.636719 109.863281 199.757812 107.238281 198.316406 105.523438 C 196.515625 103.382812 194.332031 101.230469 191.613281 100.484375 C 184.640625 98.5625 176.441406 102.40625 175.699219 110.5625 C 174.605469 122.574219 186.445312 123.207031 184.914062 136.605469 C 179.644531 137.980469 173.21875 136.308594 170.253906 138.285156 C 168.433594 139.5 165.738281 147.085938 163.972656 150.046875 C 161.621094 153.992188 158.464844 158.332031 156.015625 160.96875 C 143.042969 174.914062 122.957031 180.429688 104.082031 188.691406 C 97.320312 191.648438 90.457031 195.179688 83.558594 198.773438 C 74.257812 203.617188 63.976562 208.332031 60.945312 217.675781 C 60.128906 220.183594 58.851562 226.410156 62.199219 229.4375 C 67.023438 230.75 71.550781 223.902344 76.859375 222.714844 C 79.484375 222.125 84.289062 222.714844 88.585938 222.714844 L 103.242188 222.714844 C 149.476562 222.714844 213.574219 223.132812 269.511719 223.132812 C 279.085938 223.132812 289.953125 221.996094 297.15625 223.554688 C 302.410156 224.691406 305.917969 231.335938 312.234375 230.695312 C 316.0625 225.457031 313.21875 218.707031 310.554688 214.734375 Z M 197.894531 108.882812 C 195.527344 105.9375 193.542969 102.605469 188.679688 102.164062 C 193.242188 101.234375 196.371094 105.371094 197.894531 108.882812 Z M 184.910156 101.742188 C 185.785156 101.507812 188.113281 101.542969 188.261719 101.742188 C 188.675781 102.292969 186.128906 101.992188 185.75 102.164062 C 184.230469 102.847656 179.96875 104.761719 178.628906 106.78125 C 180.039062 103.957031 183.246094 102.191406 184.910156 101.742188 Z M 177.792969 107.625 C 179.480469 107.789062 177.480469 110.738281 177.375 111.824219 C 179.683594 120.832031 187.886719 125.746094 187.007812 136.605469 C 184.945312 134.761719 186.175781 133.390625 185.75 131.144531 C 184.148438 122.714844 174.425781 118.65625 177.792969 107.625 Z M 201.246094 139.546875 C 206.320312 149.445312 210.585938 157.976562 218.417969 165.167969 C 230.785156 176.523438 252.125 183.660156 269.515625 191.210938 C 277.53125 194.691406 283.246094 197.792969 291.292969 200.871094 C 298.417969 206.328125 307.363281 209.957031 310.140625 219.773438 C 291.941406 192.9375 242.992188 189.828125 218.417969 168.527344 C 210.390625 161.570312 205.570312 153.175781 200.410156 142.488281 C 193.4375 140.082031 182.320312 138.464844 174.863281 141.226562 C 170.269531 142.925781 170.265625 147.394531 167.324219 150.46875 C 165.628906 149.835938 168.554688 147.082031 169 145.847656 C 167.699219 134.359375 191.304688 137.589844 201.246094 139.546875 Z M 71.832031 206.332031 C 100.652344 186.433594 148.34375 181.859375 165.648438 149.628906 C 166.988281 151.394531 164.515625 153.265625 163.554688 155.085938 C 165.449219 154.75 165.691406 152.753906 166.484375 151.308594 C 158.757812 169.933594 140.117188 177.300781 119.996094 185.75 C 110.753906 189.632812 101.28125 193.796875 91.515625 198.351562 C 80.292969 203.585938 67.59375 208.894531 63.039062 220.191406 C 62.820312 214.117188 67.6875 209.195312 71.832031 206.332031 Z M 69.320312 224.8125 C 69.082031 225.5625 68.15625 224.875 68.902344 224.8125 C 92.699219 211.578125 115.910156 197.753906 140.101562 184.910156 C 116.898438 198.605469 93.230469 211.832031 69.320312 224.8125 Z M 185.75 160.96875 C 189.664062 161.925781 191.167969 162.445312 196.519531 165.988281 C 200.621094 168.695312 203.929688 170.707031 207.527344 172.726562 C 233.585938 187.363281 261.355469 202.214844 286.683594 218.09375 C 264.578125 217.347656 236.71875 218.035156 213.449219 218.148438 L 199.925781 218.039062 C 168.023438 217.199219 129.359375 217.503906 86.488281 217.253906 C 119 197.914062 153.070312 180.140625 185.746094 160.96875 Z M 140.519531 184.910156 C 143.984375 182.507812 147.660156 180.3125 151.828125 178.609375 C 150.410156 179.742188 144.101562 183.15625 140.519531 184.910156 Z M 152.664062 178.1875 C 155.902344 175.695312 159.679688 173.742188 163.554688 171.886719 C 160.304688 174.371094 156.464844 176.261719 152.664062 178.1875 Z M 82.722656 221.03125 C 84.679688 221.257812 90.96875 219.414062 93.191406 221.453125 C 90.515625 220.964844 84.269531 222.109375 82.722656 221.03125 Z M 93.609375 220.613281 C 99.171875 220.894531 101.644531 220.800781 106.175781 221.03125 C 103.078125 221.476562 96.019531 222.261719 93.609375 220.613281 Z M 107.011719 221.03125 L 109.527344 221.03125 C 140.917969 220.757812 174.472656 221.605469 206.691406 220.613281 C 174.429688 220.402344 129.667969 220.773438 82.722656 219.773438 C 85.824219 217.59375 94.675781 217.914062 101.570312 218.09375 C 121.550781 218.617188 150.183594 218.75 177.777344 218.464844 L 178.03125 218.582031 L 228.542969 219 L 228.46875 218.871094 C 242.765625 219.09375 256.785156 219.0625 269.09375 218.933594 C 276.253906 218.859375 283.910156 218 290.453125 220.191406 C 259.179688 221.066406 234.699219 220.070312 207.109375 220.613281 C 237.484375 221.714844 269.667969 220.519531 292.546875 221.453125 C 223.585938 222.101562 166.640625 222.222656 107.011719 221.03125 Z M 310.976562 228.59375 C 276.742188 209.300781 242.871094 189.648438 208.785156 170.207031 L 205.855469 170.207031 C 200.046875 165.953125 193.085938 162.851562 186.589844 159.289062 C 179.566406 162.746094 173.125 166.785156 166.484375 170.628906 C 156.230469 173.066406 146.445312 180.238281 137.585938 185.332031 C 112.617188 199.683594 87.101562 213.125 62.199219 226.914062 C 66.140625 208.527344 86.53125 200.640625 102.824219 193.730469 C 116.09375 188.105469 129.621094 183.207031 140.9375 177.351562 C 141.882812 178.328125 138.445312 178.46875 138.425781 179.871094 C 148.929688 174.023438 160.148438 165.035156 167.324219 152.566406 C 169.234375 149.246094 172.027344 142.363281 175.28125 142.066406 C 180.042969 141.632812 182.246094 147.316406 187.007812 147.945312 C 186.515625 146.199219 184.328125 146.15625 183.238281 145.007812 C 185.691406 144.796875 188.429688 147.914062 191.195312 148.785156 C 188.976562 145.832031 185.042969 144.59375 181.5625 142.90625 C 181.273438 144.035156 182.429688 143.71875 182.820312 144.167969 C 181.417969 144.855469 179.683594 142.28125 177.792969 142.066406 C 184.769531 139.964844 194.355469 140.4375 199.992188 143.328125 C 203.4375 150.550781 206.664062 157.070312 211.296875 162.648438 C 230.421875 185.664062 269.59375 188.386719 293.386719 206.753906 L 295.480469 206.753906 C 300.417969 211.457031 306.585938 214.9375 309.300781 221.875 C 307.496094 221.582031 306.730469 220.253906 305.113281 219.773438 C 307.011719 222.667969 312.472656 223.625 310.976562 228.59375 Z M 310.976562 228.59375 " fill-opacity="1" fill-rule="nonzero"/></g><path stroke-linecap="butt" transform="matrix(0.000000000000000044, -0.725441, 0.75, 0.000000000000000046, 263.83323, 222.536937)" fill="none" stroke-linejoin="miter" d="M 0.00245525 0.498401 L 6.205581 0.498401 " stroke="#fffafa" stroke-width="1" stroke-opacity="1" stroke-miterlimit="4"/><path stroke-linecap="butt" transform="matrix(0.000000000000000046, -0.756757, 0.75, 0.000000000000000046, 108.35424, 222.53477)" fill="none" stroke-linejoin="miter" d="M -0.000510155 0.501639 L 6.947314 0.501639 " stroke="#fffafa" stroke-width="1" stroke-opacity="1" stroke-miterlimit="4"/><g fill="#fffafa" fill-opacity="1"><g transform="translate(162.755832, 249.5568)"><g><path d="M 3.109375 -0.71875 C 3.316406 -0.71875 3.507812 -0.765625 3.6875 -0.859375 C 3.863281 -0.960938 4 -1.066406 4.09375 -1.171875 C 4.3125 -1.398438 4.421875 -1.675781 4.421875 -2 C 4.421875 -2.507812 4.253906 -2.898438 3.921875 -3.171875 C 3.585938 -3.441406 3.140625 -3.578125 2.578125 -3.578125 L 1.984375 -3.578125 C 1.941406 -3.578125 1.921875 -3.617188 1.921875 -3.703125 L 1.921875 -4.1875 C 1.921875 -4.269531 1.941406 -4.3125 1.984375 -4.3125 L 2.578125 -4.3125 C 3.035156 -4.3125 3.367188 -4.429688 3.578125 -4.671875 C 3.796875 -4.921875 3.90625 -5.1875 3.90625 -5.46875 C 3.90625 -5.644531 3.875 -5.796875 3.8125 -5.921875 C 3.75 -6.054688 3.644531 -6.175781 3.5 -6.28125 C 3.363281 -6.382812 3.222656 -6.445312 3.078125 -6.46875 L 2.984375 -6.484375 L 1.953125 -6.484375 C 1.878906 -6.484375 1.816406 -6.460938 1.765625 -6.421875 C 1.722656 -6.378906 1.703125 -6.328125 1.703125 -6.265625 L 1.703125 -0.9375 C 1.703125 -0.875 1.722656 -0.820312 1.765625 -0.78125 C 1.816406 -0.738281 1.878906 -0.71875 1.953125 -0.71875 Z M 2.9375 0 L 0.5625 0 C 0.519531 0 0.5 -0.0234375 0.5 -0.078125 C 0.5 -0.128906 0.503906 -0.160156 0.515625 -0.171875 C 0.535156 -0.179688 0.554688 -0.191406 0.578125 -0.203125 C 0.597656 -0.210938 0.625 -0.234375 0.65625 -0.265625 C 0.695312 -0.304688 0.738281 -0.375 0.78125 -0.46875 C 0.820312 -0.570312 0.84375 -0.671875 0.84375 -0.765625 L 0.84375 -6.421875 C 0.84375 -6.640625 0.773438 -6.820312 0.640625 -6.96875 C 0.628906 -6.976562 0.601562 -6.988281 0.5625 -7 C 0.519531 -7.019531 0.5 -7.054688 0.5 -7.109375 C 0.5 -7.171875 0.519531 -7.203125 0.5625 -7.203125 L 2.921875 -7.203125 C 3.171875 -7.203125 3.410156 -7.148438 3.640625 -7.046875 C 3.867188 -6.953125 4.0625 -6.828125 4.21875 -6.671875 C 4.5625 -6.316406 4.734375 -5.941406 4.734375 -5.546875 C 4.734375 -5.242188 4.65625 -4.984375 4.5 -4.765625 C 4.351562 -4.546875 4.101562 -4.3125 3.75 -4.0625 L 3.75 -3.96875 C 4.78125 -3.539062 5.296875 -2.890625 5.296875 -2.015625 C 5.296875 -1.546875 5.082031 -1.097656 4.65625 -0.671875 C 4.46875 -0.472656 4.222656 -0.3125 3.921875 -0.1875 C 3.617188 -0.0625 3.289062 0 2.9375 0 Z M 2.9375 0 "/></g></g></g><g fill="#fffafa" fill-opacity="1"><g transform="translate(168.660697, 249.5568)"><g><path d="M 0.078125 1.8125 C 0.046875 1.8125 0.03125 1.78125 0.03125 1.71875 C 0.03125 1.65625 0.0351562 1.613281 0.046875 1.59375 C 0.0546875 1.570312 0.0820312 1.554688 0.125 1.546875 C 0.757812 1.316406 1.378906 0.675781 1.984375 -0.375 L 1.984375 -0.40625 L 0.171875 -3.859375 C 0.117188 -3.953125 0.09375 -4.03125 0.09375 -4.09375 C 0.09375 -4.15625 0.113281 -4.1875 0.15625 -4.1875 L 1.296875 -4.1875 C 1.335938 -4.1875 1.359375 -4.160156 1.359375 -4.109375 C 1.359375 -4.054688 1.34375 -4.023438 1.3125 -4.015625 C 1.289062 -4.003906 1.265625 -3.992188 1.234375 -3.984375 C 1.160156 -3.953125 1.125 -3.898438 1.125 -3.828125 C 1.125 -3.765625 1.128906 -3.726562 1.140625 -3.71875 L 2.390625 -1.3125 L 2.515625 -1.3125 L 3.71875 -3.71875 C 3.726562 -3.726562 3.734375 -3.757812 3.734375 -3.8125 C 3.734375 -3.882812 3.691406 -3.9375 3.609375 -3.96875 C 3.535156 -4 3.5 -4.03125 3.5 -4.0625 C 3.5 -4.144531 3.515625 -4.1875 3.546875 -4.1875 L 4.4375 -4.1875 C 4.476562 -4.1875 4.5 -4.160156 4.5 -4.109375 C 4.5 -4.046875 4.484375 -3.988281 4.453125 -3.9375 L 3.421875 -1.859375 C 3.253906 -1.523438 3.117188 -1.257812 3.015625 -1.0625 L 2.609375 -0.375 C 2.453125 -0.09375 2.300781 0.144531 2.15625 0.34375 L 1.6875 1 C 1.507812 1.238281 1.328125 1.472656 1.140625 1.703125 C 1.078125 1.773438 1.019531 1.8125 0.96875 1.8125 Z M 0.078125 1.8125 "/></g></g></g><g fill="#fffafa" fill-opacity="1"><g transform="translate(173.550425, 249.5568)"><g/></g></g><g fill="#fffafa" fill-opacity="1"><g transform="translate(176.115445, 249.5568)"><g><path d="M 0.5 -0.671875 C 0.5 -0.671875 1.460938 -2.828125 3.390625 -7.140625 C 3.410156 -7.179688 3.484375 -7.203125 3.609375 -7.203125 C 3.742188 -7.203125 3.816406 -7.179688 3.828125 -7.140625 L 6.8125 -0.671875 C 6.925781 -0.398438 7.039062 -0.238281 7.15625 -0.1875 C 7.1875 -0.175781 7.203125 -0.140625 7.203125 -0.078125 C 7.203125 -0.0234375 7.1875 0 7.15625 0 L 5.5625 0 C 5.519531 0 5.5 -0.0234375 5.5 -0.078125 C 5.5 -0.128906 5.503906 -0.160156 5.515625 -0.171875 C 5.535156 -0.179688 5.554688 -0.191406 5.578125 -0.203125 C 5.597656 -0.210938 5.617188 -0.222656 5.640625 -0.234375 C 5.742188 -0.347656 5.796875 -0.453125 5.796875 -0.546875 C 5.796875 -0.640625 5.785156 -0.71875 5.765625 -0.78125 L 5.140625 -2.296875 L 1.96875 -2.296875 L 1.34375 -0.78125 C 1.320312 -0.71875 1.3125 -0.671875 1.3125 -0.640625 L 1.3125 -0.59375 C 1.3125 -0.59375 1.3125 -0.585938 1.3125 -0.578125 C 1.3125 -0.460938 1.367188 -0.347656 1.484375 -0.234375 C 1.492188 -0.222656 1.515625 -0.207031 1.546875 -0.1875 C 1.585938 -0.175781 1.609375 -0.140625 1.609375 -0.078125 C 1.609375 -0.0234375 1.585938 0 1.546875 0 L 0.171875 0 C 0.128906 0 0.109375 -0.0234375 0.109375 -0.078125 C 0.109375 -0.128906 0.113281 -0.160156 0.125 -0.171875 C 0.144531 -0.179688 0.164062 -0.191406 0.1875 -0.203125 C 0.28125 -0.242188 0.382812 -0.398438 0.5 -0.671875 Z M 2.28125 -2.984375 C 2.269531 -2.972656 2.265625 -2.960938 2.265625 -2.953125 C 2.273438 -2.941406 2.285156 -2.9375 2.296875 -2.9375 L 4.796875 -2.9375 C 4.804688 -2.9375 4.8125 -2.941406 4.8125 -2.953125 C 4.820312 -2.960938 4.820312 -2.972656 4.8125 -2.984375 L 3.546875 -5.75 L 3.515625 -5.75 Z M 2.28125 -2.984375 "/></g></g></g><g fill="#fffafa" fill-opacity="1"><g transform="translate(183.74736, 249.5568)"><g><path d="M 3.1875 -6.46875 L 3.1875 -6.546875 C 3.1875 -6.554688 3.195312 -6.566406 3.21875 -6.578125 C 3.238281 -6.585938 3.25 -6.59375 3.25 -6.59375 L 4.03125 -7.1875 C 4.050781 -7.195312 4.082031 -7.203125 4.125 -7.203125 C 4.175781 -7.203125 4.210938 -7.191406 4.234375 -7.171875 C 4.265625 -7.160156 4.28125 -7.125 4.28125 -7.0625 C 4.28125 -4.425781 4.285156 -2.382812 4.296875 -0.9375 C 4.304688 -0.882812 4.300781 -0.863281 4.28125 -0.875 C 4.28125 -0.875 4.285156 -0.863281 4.296875 -0.84375 C 4.316406 -0.832031 4.351562 -0.820312 4.40625 -0.8125 C 4.457031 -0.8125 4.492188 -0.804688 4.515625 -0.796875 C 4.535156 -0.785156 4.546875 -0.75 4.546875 -0.6875 C 4.546875 -0.632812 4.535156 -0.601562 4.515625 -0.59375 L 3.796875 0 C 3.785156 0.0078125 3.75 0.015625 3.6875 0.015625 C 3.625 0.015625 3.582031 0.0078125 3.5625 0 C 3.550781 -0.0195312 3.546875 -0.0390625 3.546875 -0.0625 C 3.546875 -0.0820312 3.546875 -0.101562 3.546875 -0.125 C 3.554688 -0.15625 3.554688 -0.191406 3.546875 -0.234375 C 3.535156 -0.273438 3.523438 -0.296875 3.515625 -0.296875 C 3.503906 -0.296875 3.476562 -0.285156 3.4375 -0.265625 L 3.328125 -0.1875 C 3.023438 -0.0078125 2.71875 0.078125 2.40625 0.078125 C 2.101562 0.078125 1.820312 0.0234375 1.5625 -0.078125 C 1.3125 -0.191406 1.085938 -0.34375 0.890625 -0.53125 C 0.691406 -0.71875 0.53125 -0.941406 0.40625 -1.203125 C 0.289062 -1.472656 0.234375 -1.785156 0.234375 -2.140625 C 0.234375 -2.503906 0.328125 -2.851562 0.515625 -3.1875 C 0.703125 -3.53125 0.96875 -3.796875 1.3125 -3.984375 C 1.65625 -4.179688 2.054688 -4.28125 2.515625 -4.28125 C 2.691406 -4.28125 2.878906 -4.234375 3.078125 -4.140625 C 3.273438 -4.054688 3.425781 -3.96875 3.53125 -3.875 L 3.578125 -3.875 C 3.578125 -4.820312 3.570312 -5.566406 3.5625 -6.109375 C 3.5625 -6.203125 3.535156 -6.269531 3.484375 -6.3125 C 3.441406 -6.351562 3.390625 -6.375 3.328125 -6.375 C 3.273438 -6.375 3.242188 -6.382812 3.234375 -6.40625 C 3.203125 -6.414062 3.1875 -6.4375 3.1875 -6.46875 Z M 3.546875 -1 L 3.5625 -2.90625 C 3.425781 -3.15625 3.226562 -3.347656 2.96875 -3.484375 C 2.707031 -3.617188 2.414062 -3.6875 2.09375 -3.6875 C 1.675781 -3.6875 1.335938 -3.46875 1.078125 -3.03125 C 0.941406 -2.800781 0.875 -2.582031 0.875 -2.375 C 0.875 -1.832031 1.039062 -1.390625 1.375 -1.046875 C 1.71875 -0.710938 2.15625 -0.546875 2.6875 -0.546875 C 2.832031 -0.546875 2.984375 -0.585938 3.140625 -0.671875 C 3.304688 -0.765625 3.441406 -0.875 3.546875 -1 Z M 3.546875 -1 "/></g></g></g><g fill="#fffafa" fill-opacity="1"><g transform="translate(188.865603, 249.5568)"><g><path d="M 0.375 -3.453125 L 0.390625 -3.53125 C 0.390625 -3.550781 0.394531 -3.566406 0.40625 -3.578125 C 0.425781 -3.585938 0.4375 -3.59375 0.4375 -3.59375 L 1.234375 -4.171875 C 1.242188 -4.179688 1.273438 -4.1875 1.328125 -4.1875 C 1.378906 -4.1875 1.414062 -4.179688 1.4375 -4.171875 C 1.457031 -4.160156 1.46875 -4.117188 1.46875 -4.046875 L 1.46875 -3.296875 C 1.488281 -3.328125 1.515625 -3.359375 1.546875 -3.390625 C 1.753906 -3.648438 1.972656 -3.851562 2.203125 -4 C 2.429688 -4.144531 2.691406 -4.21875 2.984375 -4.21875 C 3.078125 -4.21875 3.128906 -4.207031 3.140625 -4.1875 C 3.191406 -4.050781 3.234375 -3.921875 3.265625 -3.796875 L 3.390625 -3.28125 C 3.398438 -3.25 3.378906 -3.21875 3.328125 -3.1875 C 3.273438 -3.15625 3.234375 -3.140625 3.203125 -3.140625 C 3.171875 -3.148438 3.140625 -3.179688 3.109375 -3.234375 L 3.0625 -3.3125 C 2.90625 -3.457031 2.722656 -3.515625 2.515625 -3.484375 C 2.304688 -3.453125 2.109375 -3.375 1.921875 -3.25 C 1.734375 -3.125 1.59375 -2.992188 1.5 -2.859375 C 1.5 -2.847656 1.492188 -2.832031 1.484375 -2.8125 C 1.472656 -2.800781 1.46875 -2.789062 1.46875 -2.78125 L 1.46875 -0.765625 C 1.46875 -0.753906 1.46875 -0.722656 1.46875 -0.671875 C 1.46875 -0.628906 1.46875 -0.597656 1.46875 -0.578125 C 1.488281 -0.390625 1.550781 -0.273438 1.65625 -0.234375 C 1.757812 -0.191406 1.8125 -0.15625 1.8125 -0.125 C 1.8125 -0.0390625 1.796875 0 1.765625 0 L 0.453125 0 C 0.421875 0 0.40625 -0.0234375 0.40625 -0.078125 C 0.40625 -0.128906 0.414062 -0.160156 0.4375 -0.171875 C 0.457031 -0.191406 0.484375 -0.207031 0.515625 -0.21875 C 0.554688 -0.238281 0.585938 -0.257812 0.609375 -0.28125 C 0.648438 -0.320312 0.679688 -0.367188 0.703125 -0.421875 C 0.734375 -0.484375 0.75 -0.550781 0.75 -0.625 C 0.75 -0.707031 0.75 -0.753906 0.75 -0.765625 L 0.75 -3.09375 C 0.75 -3.1875 0.722656 -3.253906 0.671875 -3.296875 C 0.628906 -3.335938 0.582031 -3.359375 0.53125 -3.359375 C 0.476562 -3.359375 0.441406 -3.367188 0.421875 -3.390625 C 0.390625 -3.410156 0.375 -3.429688 0.375 -3.453125 Z M 0.375 -3.453125 "/></g></g></g><g fill="#fffafa" fill-opacity="1"><g transform="translate(192.652304, 249.5568)"><g><path d="M 3.390625 -3.046875 C 3.210938 -3.546875 2.835938 -3.796875 2.265625 -3.796875 C 2.003906 -3.796875 1.765625 -3.722656 1.546875 -3.578125 C 1.328125 -3.441406 1.160156 -3.265625 1.046875 -3.046875 C 0.929688 -2.835938 0.875 -2.632812 0.875 -2.4375 C 0.875 -2.25 0.878906 -2.160156 0.890625 -2.171875 L 3.375 -3.03125 L 3.375 -3.0625 Z M 0.984375 -1.703125 C 1.109375 -1.359375 1.320312 -1.085938 1.625 -0.890625 C 1.925781 -0.691406 2.265625 -0.59375 2.640625 -0.59375 C 3.128906 -0.59375 3.570312 -0.820312 3.96875 -1.28125 C 4.03125 -1.332031 4.117188 -1.300781 4.234375 -1.1875 C 4.242188 -1.175781 4.242188 -1.160156 4.234375 -1.140625 C 3.898438 -0.679688 3.640625 -0.382812 3.453125 -0.25 C 3.140625 -0.03125 2.78125 0.078125 2.375 0.078125 C 2.09375 0.078125 1.820312 0.0195312 1.5625 -0.09375 C 1.03125 -0.320312 0.648438 -0.695312 0.421875 -1.21875 C 0.296875 -1.476562 0.234375 -1.785156 0.234375 -2.140625 C 0.234375 -2.503906 0.328125 -2.851562 0.515625 -3.1875 C 0.703125 -3.53125 0.96875 -3.796875 1.3125 -3.984375 C 1.65625 -4.179688 2.054688 -4.28125 2.515625 -4.28125 C 3.054688 -4.28125 3.546875 -4.023438 3.984375 -3.515625 C 4.191406 -3.253906 4.296875 -3.050781 4.296875 -2.90625 Z M 0.984375 -1.703125 "/></g></g></g><g fill="#fffafa" fill-opacity="1"><g transform="translate(197.559611, 249.5568)"><g><path d="M 0.453125 0 C 0.410156 0 0.390625 -0.0234375 0.390625 -0.078125 C 0.390625 -0.128906 0.398438 -0.160156 0.421875 -0.171875 C 0.453125 -0.191406 0.484375 -0.207031 0.515625 -0.21875 C 0.554688 -0.238281 0.585938 -0.257812 0.609375 -0.28125 C 0.703125 -0.363281 0.742188 -0.460938 0.734375 -0.578125 C 0.734375 -0.691406 0.734375 -0.753906 0.734375 -0.765625 L 0.734375 -3.09375 C 0.734375 -3.1875 0.707031 -3.253906 0.65625 -3.296875 C 0.613281 -3.335938 0.566406 -3.359375 0.515625 -3.359375 C 0.460938 -3.359375 0.425781 -3.363281 0.40625 -3.375 C 0.394531 -3.394531 0.382812 -3.410156 0.375 -3.421875 C 0.375 -3.429688 0.375 -3.441406 0.375 -3.453125 C 0.375 -3.460938 0.375 -3.472656 0.375 -3.484375 C 0.375 -3.503906 0.375 -3.519531 0.375 -3.53125 C 0.375 -3.539062 0.375 -3.546875 0.375 -3.546875 C 0.382812 -3.554688 0.394531 -3.566406 0.40625 -3.578125 C 0.414062 -3.585938 0.425781 -3.59375 0.4375 -3.59375 L 1.21875 -4.171875 C 1.226562 -4.179688 1.257812 -4.1875 1.3125 -4.1875 C 1.363281 -4.1875 1.398438 -4.179688 1.421875 -4.171875 C 1.453125 -4.160156 1.46875 -4.117188 1.46875 -4.046875 L 1.46875 -3.734375 L 1.6875 -3.859375 L 1.828125 -3.921875 C 2.234375 -4.128906 2.613281 -4.234375 2.96875 -4.234375 C 3.320312 -4.234375 3.671875 -4.109375 4.015625 -3.859375 C 4.171875 -3.742188 4.296875 -3.601562 4.390625 -3.4375 C 4.492188 -3.269531 4.546875 -3.101562 4.546875 -2.9375 L 4.546875 -0.578125 C 4.546875 -0.515625 4.5625 -0.445312 4.59375 -0.375 C 4.625 -0.300781 4.675781 -0.25 4.75 -0.21875 C 4.832031 -0.1875 4.875 -0.15625 4.875 -0.125 C 4.875 -0.0390625 4.859375 0 4.828125 0 L 3.53125 0 C 3.5 0 3.484375 -0.0234375 3.484375 -0.078125 C 3.484375 -0.128906 3.492188 -0.160156 3.515625 -0.171875 C 3.546875 -0.191406 3.578125 -0.207031 3.609375 -0.21875 C 3.648438 -0.238281 3.679688 -0.257812 3.703125 -0.28125 C 3.722656 -0.300781 3.742188 -0.328125 3.765625 -0.359375 C 3.785156 -0.390625 3.796875 -0.421875 3.796875 -0.453125 C 3.804688 -0.492188 3.8125 -0.523438 3.8125 -0.546875 C 3.8125 -0.566406 3.8125 -0.601562 3.8125 -0.65625 C 3.8125 -0.71875 3.8125 -0.753906 3.8125 -0.765625 L 3.8125 -2.828125 C 3.8125 -2.992188 3.753906 -3.144531 3.640625 -3.28125 C 3.410156 -3.53125 3.09375 -3.65625 2.6875 -3.65625 C 2.28125 -3.65625 1.875 -3.550781 1.46875 -3.34375 L 1.46875 -0.578125 C 1.46875 -0.515625 1.484375 -0.445312 1.515625 -0.375 C 1.546875 -0.300781 1.601562 -0.25 1.6875 -0.21875 C 1.769531 -0.1875 1.8125 -0.15625 1.8125 -0.125 C 1.8125 -0.0390625 1.789062 0 1.75 0 Z M 0.453125 0 "/></g></g></g><g fill="#fffafa" fill-opacity="1"><g transform="translate(203.038206, 249.5568)"><g><path d="M 3.390625 -3.046875 C 3.210938 -3.546875 2.835938 -3.796875 2.265625 -3.796875 C 2.003906 -3.796875 1.765625 -3.722656 1.546875 -3.578125 C 1.328125 -3.441406 1.160156 -3.265625 1.046875 -3.046875 C 0.929688 -2.835938 0.875 -2.632812 0.875 -2.4375 C 0.875 -2.25 0.878906 -2.160156 0.890625 -2.171875 L 3.375 -3.03125 L 3.375 -3.0625 Z M 0.984375 -1.703125 C 1.109375 -1.359375 1.320312 -1.085938 1.625 -0.890625 C 1.925781 -0.691406 2.265625 -0.59375 2.640625 -0.59375 C 3.128906 -0.59375 3.570312 -0.820312 3.96875 -1.28125 C 4.03125 -1.332031 4.117188 -1.300781 4.234375 -1.1875 C 4.242188 -1.175781 4.242188 -1.160156 4.234375 -1.140625 C 3.898438 -0.679688 3.640625 -0.382812 3.453125 -0.25 C 3.140625 -0.03125 2.78125 0.078125 2.375 0.078125 C 2.09375 0.078125 1.820312 0.0195312 1.5625 -0.09375 C 1.03125 -0.320312 0.648438 -0.695312 0.421875 -1.21875 C 0.296875 -1.476562 0.234375 -1.785156 0.234375 -2.140625 C 0.234375 -2.503906 0.328125 -2.851562 0.515625 -3.1875 C 0.703125 -3.53125 0.96875 -3.796875 1.3125 -3.984375 C 1.65625 -4.179688 2.054688 -4.28125 2.515625 -4.28125 C 3.054688 -4.28125 3.546875 -4.023438 3.984375 -3.515625 C 4.191406 -3.253906 4.296875 -3.050781 4.296875 -2.90625 Z M 0.984375 -1.703125 "/></g></g></g><g fill="#fffafa" fill-opacity="1"><g transform="translate(207.945512, 249.5568)"><g><path d="M 4.0625 -4.1875 C 4.101562 -4.1875 4.125 -4.160156 4.125 -4.109375 C 4.125 -4.046875 4.113281 -3.988281 4.09375 -3.9375 L 4.015625 -3.796875 L 2.578125 -2.125 L 4.0625 -0.375 L 4.140625 -0.25 C 4.160156 -0.195312 4.171875 -0.140625 4.171875 -0.078125 C 4.171875 -0.0234375 4.15625 0 4.125 0 L 2.984375 0 C 2.941406 0 2.921875 -0.0234375 2.921875 -0.078125 C 2.921875 -0.128906 2.929688 -0.160156 2.953125 -0.171875 C 2.984375 -0.179688 3.015625 -0.195312 3.046875 -0.21875 C 3.117188 -0.238281 3.15625 -0.28125 3.15625 -0.34375 C 3.15625 -0.40625 3.148438 -0.441406 3.140625 -0.453125 L 2.0625 -1.734375 L 0.90625 -0.46875 C 0.894531 -0.457031 0.890625 -0.425781 0.890625 -0.375 C 0.890625 -0.300781 0.925781 -0.25 1 -0.21875 C 1.082031 -0.1875 1.125 -0.15625 1.125 -0.125 C 1.125 -0.0390625 1.101562 0 1.0625 0 L 0.171875 0 C 0.128906 0 0.109375 -0.0234375 0.109375 -0.078125 C 0.109375 -0.148438 0.125 -0.207031 0.15625 -0.25 L 0.21875 -0.390625 L 1.734375 -2.109375 L 0.28125 -3.8125 L 0.203125 -3.9375 C 0.179688 -3.988281 0.171875 -4.039062 0.171875 -4.09375 C 0.171875 -4.15625 0.191406 -4.1875 0.234375 -4.1875 L 1.375 -4.1875 C 1.40625 -4.1875 1.421875 -4.160156 1.421875 -4.109375 C 1.421875 -4.054688 1.410156 -4.023438 1.390625 -4.015625 C 1.367188 -4.003906 1.34375 -3.992188 1.3125 -3.984375 C 1.226562 -3.953125 1.1875 -3.90625 1.1875 -3.84375 C 1.1875 -3.78125 1.191406 -3.742188 1.203125 -3.734375 L 2.265625 -2.5 L 3.34375 -3.71875 C 3.351562 -3.726562 3.359375 -3.757812 3.359375 -3.8125 C 3.359375 -3.882812 3.316406 -3.9375 3.234375 -3.96875 C 3.160156 -4 3.125 -4.03125 3.125 -4.0625 C 3.125 -4.144531 3.140625 -4.1875 3.171875 -4.1875 Z M 4.0625 -4.1875 "/></g></g></g></svg>