<?xml version="1.0" encoding="utf-8"?>
<!-- Generator: Adobe Illustrator 19.0.0, SVG Export Plug-In . SVG Version: 6.00 Build 0)  -->
<svg version="1.1" id="Layer_1" xmlns="http://www.w3.org/2000/svg" xmlns:xlink="http://www.w3.org/1999/xlink" x="0px" y="0px"
	 viewBox="0 0 500 500" style="enable-background:new 0 0 500 500;" xml:space="preserve">
<g id="XMLID_1_">
	<polygon id="XMLID_15_" points="268,286.5 215,339.6 90.2,214.8 150.5,154.5 279.4,154.5 339.8,214.8 313.9,240.7 334.1,240.7 
		360,214.8 285.4,140.2 144.6,140.2 70,214.8 215,359.8 288.3,286.5 	"/>
	<path id="XMLID_14_" d="M238.7,224.4v4.6h-16v69.4h16v4.6h-46.8v-4.6h15.3V229h-15.3v-4.6h15.3v-9.7c0-33.9,14.1-48.1,33.1-48.1
		c7.7,0,16.6,3.6,16.6,12.9c0,4-4,6.5-7.3,6.5c-5.4,0-8.1-3.8-8.1-9.1c0-2.2,1.6-2.4,1.6-5c0-1-3.4-1.2-4.8-1.2
		c-9.5,0-15.7,11.5-15.7,31.3v22.4L238.7,224.4L238.7,224.4z"/>
	<circle id="XMLID_13_" cx="264.4" cy="226.4" r="7.2"/>
	<path d="M260.2,279.1c-0.2,2.8-2.3,4.9-5.1,4.9c-2.2,0-3.5-1.4-3.9-3.7c-2.1,2.5-5.1,3.7-8.1,3.7c-3.8,0-7.1-1.4-7.1-5.9
		c0.2-5.6,5.9-8.7,15.1-8.7v-5.7c0-2.8-2.2-3.7-4.3-3.7c-1.3,0-5.6,0.4-5.6,2.2c0,0.5,1.8,0.8,1.8,2.8c0,1.5-1,2.5-2.5,2.5
		c-1.6,0-2.5-1.2-2.5-2.9c0-2.2,2.5-5.8,9.6-5.8c8.2,0,8.2,3.5,8.2,5.9v14.3c0,1.8,0,2.8,1.3,2.8c1.2,0,1.8-1.7,2.1-2.7H260.2z
		 M251.1,270.7c-3.9,0.1-10.6,0.7-10.6,6.3c0,3,1.9,4.8,4.6,4.8c1.9,0,3.2-0.5,4.6-1.7c0.5-0.5,1.3-1.1,1.3-3.7L251.1,270.7
		L251.1,270.7z M279.1,259.4v6.7h-1.3c-0.9-3.5-3-6-6.6-6.1c-4.9-0.1-5.7,3.7-5.7,4.4c0,1.7,0.5,2.7,9.7,4.5c4.6,1,6.3,3.1,6.3,6.9
		c0,5.2-3.9,8.3-8.7,8.3c-2.5,0-5.2-1-6.9-3l-1.3,2.2h-1.3v-8h1.4c1.1,4.3,4.1,7.5,8.6,7.5c2.7,0,5.8-2,5.8-5.2
		c0-2.4-3.3-3.4-8.3-4.7c-4-1-7.5-1.5-7.5-6.7c0-2.5,1.6-7.4,8.1-7.4c1.9,0,3.7,0.7,5.6,2.2l1.1-1.6L279.1,259.4L279.1,259.4z
		 M288.9,243.1h-3.3v-1.4h1.3c2.2,0,4.6-0.1,6.7-0.5v24h0.1c1.7-3.8,4-6.4,8.4-6.4c2.2,0,7.2,0.5,7.2,6v17.1h3.3v1.4h-11.1v-1.4h3.1
		v-16.3c0-4.4-1.4-5.1-3.8-5.1c-4.1,0-7.2,5.6-7.2,10.1v11.2h3.3v1.4h-11.3v-1.4h3.3V243.1z M316.2,283.3v-1.4h4v-21.1h-4v-1.4h2
		c2.2,0,4.6-0.1,6.7-0.6v23.1h3.6v1.4L316.2,283.3L316.2,283.3z M322.5,243.5c1.4,0,3.1,1.3,3.1,2.9c0,1.9-1.3,3.2-3.1,3.2
		c-1.7,0-2.9-1.4-2.9-3.2C319.6,244.8,321,243.5,322.5,243.5z M356,271.4c0,7.3-5.3,12.7-11.6,12.7s-11.6-5.4-11.6-12.7
		c0-7.3,5.3-12.6,11.6-12.6S356,264.1,356,271.4z M338.2,271.4c0,5.1,0.1,11.4,6.1,11.4c6.1,0,6.1-6.4,6.1-11.4
		c0-5-0.1-11.4-6.1-11.4C338.3,260,338.2,266.4,338.2,271.4z M362.8,260.8h-3.3v-1.4h1.3c1.1,0,2.3,0,3.4-0.1
		c1.1-0.1,2.3-0.2,3.4-0.5v6.4h0.1c1.7-3.8,4-6.4,8.4-6.4c2.2,0,7.2,0.5,7.2,6v17.1h3.3v1.4h-11.1v-1.4h3.1v-16.3
		c0-4.4-1.4-5.1-3.8-5.1c-4.1,0-7.2,5.6-7.2,10.1v11.2h3.3v1.4h-11.3v-1.4h3.3L362.8,260.8L362.8,260.8z M389,259.4h3.6V252
		c1.6,0,3.1,0,4.6-0.2v7.7h5.3v1.4h-5.3v18.4c0,1.1,0,2.7,2.3,2.7c1.6,0,2.4-1.1,3.4-2.2l1,0.7c-1.1,2.3-4.1,3.7-6.5,3.7
		c-4.3,0-4.8-2.3-4.8-5.2v-18H389L389,259.4L389,259.4z M405.8,260.8v-1.4h10.8v1.4h-3.2l5.8,17.3h0.1l6.1-17.3h-3.7v-1.4h8.2v1.4
		h-2.9l-8.3,23.3h-2l-8.1-23.3H405.8z"/>
</g>
</svg>
